/* XPM */
static char *_2ad8578a632497be46c65ad739996bd[] = {
/* columns rows colors chars-per-pixel */
"16 16 2 1 ",
"  c #000033",
". c None",
/* pixels */
"................",
"................",
"................",
"................",
"................",
"................",
"................",
" . ..  .. ......",
" .     .. ......",
"................",
"................",
"................",
"................",
"................",
"................",
"................"
};
