/* XPM */
static char *ecdec98190c943e1bc6fb9532472ed54[] = {
/* columns rows colors chars-per-pixel */
"48 48 2 1 ",
"  c #000033",
". c None",
/* pixels */
"................................................",
"................................................",
"................................................",
"................................................",
"................................................",
"................................................",
"................................................",
"................................................",
"................................................",
"................................................",
"................................................",
"................................................",
"................................................",
"................................................",
"................................................",
"................................................",
"................................................",
"................................................",
"................................................",
"................................................",
". .... .. .    ...     .   .... ....  ..........",
". .... .. .     .      .     ..... ... ... .....",
". .... .. .....    .........  ... ... .... .....",
"        . .....        ....   ... ........ . ...",
"   ..   . .....    ........   ... ........ .. ..",
". .... .. .     .  ........   ......... .. ... .",
". .... .. . ... .      .     ..... ....... .... ",
". .... .. . ...  .     .   .... ....  ..........",
"................................................",
"................................................",
"................................................",
"................................................",
"................................................",
"................................................",
"................................................",
"................................................",
"................................................",
"................................................",
"................................................",
"................................................",
"................................................",
"................................................",
"................................................",
"................................................",
"................................................",
"................................................",
"................................................",
"................................................"
};
