/* XPM */
static char *a94fbb0c549e492fcde6a37666bfe208[] = {
/* columns rows colors chars-per-pixel */
"128 128 2 1 ",
"  c #000033",
". c None",
/* pixels */
"................................................................................................................................",
"................................................................................................................................",
"................................................................................................................................",
"................................................................................................................................",
"................................................................................................................................",
"................................................................................................................................",
"................................................................................................................................",
"................................................................................................................................",
"................................................................................................................................",
"................................................................................................................................",
"................................................................................................................................",
"................................................................................................................................",
"................................................................................................................................",
"................................................................................................................................",
"................................................................................................................................",
"................................................................................................................................",
"................................................................................................................................",
"................................................................................................................................",
"................................................................................................................................",
"................................................................................................................................",
"................................................................................................................................",
"................................................................................................................................",
"................................................................................................................................",
"................................................................................................................................",
"................................................................................................................................",
"................................................................................................................................",
"................................................................................................................................",
"................................................................................................................................",
"................................................................................................................................",
"................................................................................................................................",
"................................................................................................................................",
"................................................................................................................................",
"................................................................................................................................",
"................................................................................................................................",
"................................................................................................................................",
"................................................................................................................................",
"................................................................................................................................",
"................................................................................................................................",
"................................................................................................................................",
"................................................................................................................................",
"................................................................................................................................",
"................................................................................................................................",
"................................................................................................................................",
"................................................................................................................................",
"................................................................................................................................",
"................................................................................................................................",
"................................................................................................................................",
"................................................................................................................................",
"................................................................................................................................",
"................................................................................................................................",
"................................................................................................................................",
"................................................................................................................................",
"................................................................................................................................",
"................................................................................................................................",
"...   .........   .....    ..           .......              ..          .....       ..........      ........ ... ............. ",
"...   .........    ....    ..             .....              ..            ... .....   ......   .....   ..... ...  ............ ",
"...   .........    ....    ..              ....              ..              .........  ...  ........    .... ...  ............ ",
"...   .........    ....    ............     ...   ......................      ............. ......... ..  ... ... . ........... ",
"...   .........    ....    .............     ..   ........................     ........... .........  ... ... ... .  .......... ",
"...   .........    ....    ..............    ..   .........................    ..........  ......... ....  .. ... ..  ......... ",
"      .........     ...    ..............    ..   ....................... ..   .......... .........  ..... .. ... ...  ........ ",
"       ........       .    ..............    ..   ......................  ..    ......... ......... ...... .. ... .... ........ ",
"                      .    ..............    ..              ...........  ..    ........  ................  . ... ..... ....... ",
"...                ....    ..............    ..              ...........  ..    ........  ................  . ... .....  ...... ",
"                     ..    .............    ...             ............  ..    ........  ................  . ... ......  ..... ",
"      .........       .    ..               ...   ......................  ..    ......... ................ .. ... .......  .... ",
"      .........       .    ..              ....   ....................... ..    ......... ................ .. ... ........ .... ",
"...   .........    ....    ..             .....   .......................  .   ..........  ..............  .. ... ......... ... ",
"...   .........    ....    ..    .....    .....   ........................ ..  ........... .............. ... ... .........  .. ",
"...   .........    ....    ..   .......    ....   ...................... .  ............ .. ............  ... ... ..........  . ",
"...   .........    ....    ..   .......     ...               .           .  ..........  ..  ..........  .... ... ...........   ",
"...   .........    ....    ..   ........    ...               .            ..  ......  ......  .....   ...... ... ............  ",
"...   .........   .....    ..   .........    ..               .          .....        .........      ........ ... ............. ",
"................................................................................................................................",
"................................................................................................................................",
"................................................................................................................................",
"................................................................................................................................",
"................................................................................................................................",
"................................................................................................................................",
"................................................................................................................................",
"................................................................................................................................",
"................................................................................................................................",
"................................................................................................................................",
"................................................................................................................................",
"................................................................................................................................",
"................................................................................................................................",
"................................................................................................................................",
"................................................................................................................................",
"................................................................................................................................",
"................................................................................................................................",
"................................................................................................................................",
"................................................................................................................................",
"................................................................................................................................",
"................................................................................................................................",
"................................................................................................................................",
"................................................................................................................................",
"................................................................................................................................",
"................................................................................................................................",
"................................................................................................................................",
"................................................................................................................................",
"................................................................................................................................",
"................................................................................................................................",
"................................................................................................................................",
"................................................................................................................................",
"................................................................................................................................",
"................................................................................................................................",
"................................................................................................................................",
"................................................................................................................................",
"................................................................................................................................",
"................................................................................................................................",
"................................................................................................................................",
"................................................................................................................................",
"................................................................................................................................",
"................................................................................................................................",
"................................................................................................................................",
"................................................................................................................................",
"................................................................................................................................",
"................................................................................................................................",
"................................................................................................................................",
"................................................................................................................................",
"................................................................................................................................",
"................................................................................................................................",
"................................................................................................................................",
"................................................................................................................................",
"................................................................................................................................",
"................................................................................................................................",
"................................................................................................................................",
"................................................................................................................................"
};
