/* XPM */
static char *_49df2870d2d420dd3a9fee0c3114c99[] = {
/* columns rows colors chars-per-pixel */
"32 32 2 1 ",
"  c #000033",
". c None",
/* pixels */
"................................",
"................................",
"................................",
"................................",
"................................",
"................................",
"................................",
"................................",
"................................",
"................................",
"................................",
"................................",
"................................",
"................................",
". .. . ..  . ..... ...... .. ...",
"     . ...     .... ............",
"  .. . .   . ...... ............",
". .. .  .  . ..... ............ ",
"................................",
"................................",
"................................",
"................................",
"................................",
"................................",
"................................",
"................................",
"................................",
"................................",
"................................",
"................................",
"................................",
"................................"
};
