<?xml version="1.0" encoding="utf-8"?>
<!-- Generator: Adobe Illustrator 19.0.0, SVG Export Plug-In . SVG Version: 6.00 Build 0)  -->
<svg version="1.1"
	 id="svg2" xmlns:cc="http://creativecommons.org/ns#" xmlns:svg="http://www.w3.org/2000/svg" xmlns:dc="http://purl.org/dc/elements/1.1/" xmlns:inkscape="http://www.inkscape.org/namespaces/inkscape" xmlns:rdf="http://www.w3.org/1999/02/22-rdf-syntax-ns#" xmlns:sodipodi="http://sodipodi.sourceforge.net/DTD/sodipodi-0.dtd" sodipodi:docname="bitcoin-logo-noshadow.svg" inkscape:version="0.48.2 r9819"
	 xmlns="http://www.w3.org/2000/svg" xmlns:xlink="http://www.w3.org/1999/xlink" x="0px" y="0px" viewBox="206 -116 1024 1024"
	 style="enable-background:new 206 -116 1024 1024;" xml:space="preserve">
<style type="text/css">
	.st0{display:none;}
	.st1{display:inline;fill:#FFFFFF;}
	.st2{display:inline;}
	.st3{fill:url(#SVGID_1_);}
	.st4{fill:url(#SVGID_2_);}
	.st5{display:inline;fill:url(#SVGID_3_);}
	.st6{fill:#2D2D2D;}
	.st7{opacity:0.6;}
	.st8{clip-path:url(#SVGID_5_);fill:#2D2D2D;}
	.st9{clip-path:url(#SVGID_7_);fill:#2D2D2D;}
	.st10{clip-path:url(#SVGID_9_);fill:#2D2D2D;}
	.st11{clip-path:url(#SVGID_11_);fill:#2D2D2D;}
</style>
<g class="st0">
	<circle class="st1" cx="1506.2" cy="-103.8" r="353.1"/>
	<g class="st2">
		
			<radialGradient id="SVGID_1_" cx="1754.0375" cy="924.0771" r="34.4319" gradientTransform="matrix(1.7655 0 0 -1.7655 -1550.9094 1424.3173)" gradientUnits="userSpaceOnUse">
			<stop  offset="0" style="stop-color:#F9AA4B"/>
			<stop  offset="1" style="stop-color:#F7931A"/>
		</radialGradient>
		<path class="st3" d="M1505.6-245.7l-24.7,99c28,7,114.3,35.4,128.3-20.6C1623.8-225.7,1533.6-238.7,1505.6-245.7z"/>
	</g>
	<g class="st2">
		
			<radialGradient id="SVGID_2_" cx="1738.4956" cy="835.951" r="39.858" gradientTransform="matrix(1.7655 0 0 -1.7655 -1550.9094 1424.3173)" gradientUnits="userSpaceOnUse">
			<stop  offset="0" style="stop-color:#F9AA4B"/>
			<stop  offset="1" style="stop-color:#F7931A"/>
		</radialGradient>
		<path class="st4" d="M1468.5-96.7l-27.2,109.2c33.6,8.3,137.3,41.6,152.6-19.9C1609.9-71.7,1502.1-88.3,1468.5-96.7z"/>
	</g>
	
		<radialGradient id="SVGID_3_" cx="1732.5472" cy="864.5523" r="255.9973" gradientTransform="matrix(1.7655 0 0 -1.7655 -1550.9094 1424.3173)" gradientUnits="userSpaceOnUse">
		<stop  offset="0" style="stop-color:#F9AA4B"/>
		<stop  offset="1" style="stop-color:#F7931A"/>
	</radialGradient>
	<path class="st5" d="M1617.2-540.5c-242.1-60.4-487.3,87-547.7,329.2c-60.4,242.1,87,487.4,329,547.7
		c242.2,60.4,487.4-87,547.8-329.1S1859.4-480.1,1617.2-540.5z M1707.2-166.4c-6.5,44-30.9,65.3-63.3,72.8
		c44.5,23.2,67.1,58.7,45.6,120.3c-26.8,76.5-90.4,82.9-174.9,66.9l-20.6,82.3l-49.6-12.4l20.3-81.1c-12.9-3.2-26-6.6-39.5-10.3
		l-20.3,81.5l-49.5-12.4l20.5-82.4c-11.6-3-23.3-6.1-35.4-9.1L1276,33.6l24.6-56.8c0,0,36.5,9.7,36,9c14,3.5,20.3-5.7,22.7-11.8
		l32.4-130l0.1-0.4l23.1-92.8c0.6-10.5-3-23.8-23.1-28.8c0.8-0.5-36-9-36-9l13.2-53l68.4,17.1l-0.1,0.3c10.3,2.6,20.9,5,31.7,7.4
		l20.3-81.4l49.6,12.4l-19.9,79.9c13.3,3,26.7,6.1,39.7,9.4l19.8-79.3l49.6,12.4l-20.3,81.5C1670.4-258.9,1716.2-226.5,1707.2-166.4
		z"/>
</g>
<path class="st6" d="M576.2,256.3c85.4,0,123.3,57.4,123.3,122.2c0,64.8-36.5,125.8-123.3,125.8H474.5v-248H576.2z M529.1,453.3
	h47.1c53.9,0,68.7-39.7,68.7-75.5s-17-71.6-68.7-71.6h-47.1V453.3z"/>
<path class="st6" d="M964,256.6v138.5c0,73.7-41.1,113-106.3,115.2c-64.8,2.1-119.8-35.1-119.8-115.2V256.6h54.9v138.5
	c0,44.3,24.8,67.3,65.2,65.6c37.6-2.5,51-28.3,51-65.6V256.6H964z"/>
<polygon class="st6" points="1168,256.3 1228.6,256.3 1145,379.6 1230,504.3 1168.7,504.3 1110.2,417.2 1051.8,504.3 990.5,504.3 
	1074.8,379.6 991.5,256.3 1052.1,256.3 1110.2,344.5 "/>
<polygon class="st6" points="205.4,282.7 336.2,218.3 336.2,230.1 209.3,286.8 "/>
<path class="st6" d="M257.8,551V300.3c-1.4,0-2.9,0-4.3,0c-21.5-0.7-39.1-11-48.2-17.5v255.5C211.5,544.8,228,557.7,257.8,551"/>
<g class="st7">
	<g>
		<defs>
			<rect id="SVGID_4_" x="237.1" y="228.6" width="119.1" height="55"/>
		</defs>
		<clipPath id="SVGID_5_">
			<use xlink:href="#SVGID_4_"  style="overflow:visible;"/>
		</clipPath>
		<polygon class="st8" points="237.1,283.6 356.1,239.6 356.1,228.6 		"/>
	</g>
</g>
<g class="st7">
	<g>
		<defs>
			<rect id="SVGID_6_" x="252.1" y="236.5" width="127.1" height="52.5"/>
		</defs>
		<clipPath id="SVGID_7_">
			<use xlink:href="#SVGID_6_"  style="overflow:visible;"/>
		</clipPath>
		<polygon class="st9" points="252.1,289 379.2,247.5 379.2,236.5 		"/>
	</g>
</g>
<g class="st7">
	<g>
		<defs>
			<rect id="SVGID_8_" x="271.7" y="244.9" width="135.1" height="46.5"/>
		</defs>
		<clipPath id="SVGID_9_">
			<use xlink:href="#SVGID_8_"  style="overflow:visible;"/>
		</clipPath>
		<polygon class="st10" points="271.7,291.4 406.8,255.9 406.8,244.9 		"/>
	</g>
</g>
<polygon class="st6" points="430.8,258.2 265.6,301.6 257.8,551 432.6,504.8 432.7,458 336.7,483.2 336.9,423.7 425.8,400.4 
	425.9,354.2 336,377.8 336.1,330.1 430.7,305.2 "/>
<g class="st7">
	<g>
		<defs>
			<rect id="SVGID_10_" x="822.4" y="256.3" width="57.2" height="76.9"/>
		</defs>
		<clipPath id="SVGID_11_">
			<use xlink:href="#SVGID_10_"  style="overflow:visible;"/>
		</clipPath>
		<polygon class="st11" points="822.4,256.3 822.4,333.2 851.1,304.4 879.6,332.9 879.6,256.3 		"/>
	</g>
</g>
</svg>
